####
#
# OBJ File Generated by Meshlab
#
####
# Object circle.obj
#
# Vertices: 96
# Faces: 92
#
####
vn 0.000000 0.000000 -26.873310
v -19.014288 5.094863 0.000000
vn 0.000000 0.000000 -65.584793
v -19.014288 -5.094863 0.000000
vn 0.000000 0.000000 -6.834774
v -19.685040 -0.000000 0.000000
vn 0.000000 0.000000 -120.331116
v -17.047745 9.842520 0.000000
vn 0.000000 0.000000 -187.381409
v -17.047745 -9.842520 0.000000
vn 0.000000 0.000000 -262.166290
v -13.919425 13.919425 0.000000
vn 0.000000 0.000000 -339.589264
v -13.919425 -13.919425 0.000000
vn 0.000000 0.000000 -414.374115
v -9.842520 17.047745 0.000000
vn 0.000000 0.000000 -481.424377
v -9.842520 -17.047745 0.000000
vn 0.000000 0.000000 -736.755859
v -5.094863 19.014288 0.000000
vn 0.000000 0.000000 -374.297028
v -5.094863 -19.014288 0.000000
vn 0.000000 0.000000 -594.920715
v -0.000000 -19.685040 0.000000
vn 0.000000 0.000000 -594.920715
v 0.000000 19.685040 0.000000
vn 0.000000 0.000000 -574.882141
v 5.094863 -19.014288 0.000000
vn 0.000000 0.000000 -536.170654
v 5.094863 19.014288 0.000000
vn 0.000000 0.000000 -481.424408
v 9.842520 -17.047745 0.000000
vn 0.000000 0.000000 -414.374146
v 9.842520 17.047745 0.000000
vn 0.000000 0.000000 -339.589264
v 13.919425 -13.919425 0.000000
vn 0.000000 0.000000 -262.166260
v 13.919425 13.919425 0.000000
vn 0.000000 0.000000 -187.381409
v 17.047745 -9.842520 0.000000
vn 0.000000 0.000000 -120.331116
v 17.047745 9.842520 0.000000
vn 0.000000 0.000000 -65.584793
v 19.014288 -5.094863 0.000000
vn 0.000000 0.000000 -26.873310
v 19.014288 5.094863 0.000000
vn 0.000000 0.000000 -6.834774
v 19.685040 -0.000000 0.000000
vn 19.680202 21.622189 28.081930
v 12.527482 12.527482 2.047244
vn 16.194418 25.577810 29.084856
v 9.842520 17.047745 0.000000
vn 13.413382 25.979040 28.081924
v 8.858268 15.342970 2.047244
vn 22.262630 20.514845 29.084858
v 13.919425 13.919425 0.000000
vn 24.605848 15.791821 28.081930
v 15.342970 8.858268 2.047244
vn 26.813683 14.053825 29.084850
v 17.047745 9.842520 0.000000
vn 27.854649 8.885262 28.081919
v 17.112860 4.585377 2.047244
vn 29.537424 6.635058 29.084843
v 19.014288 5.094863 0.000000
vn 29.205196 1.373192 28.081921
v 17.716536 -0.000000 2.047244
vn 30.248240 -1.235872 29.084845
v 19.685040 -0.000000 0.000000
vn 38.285076 -10.258454 38.111179
v 17.112860 -4.585377 2.047244
vn 20.150040 -5.399186 20.058510
v 19.014288 -5.094863 0.000000
vn 26.813684 -14.053824 29.084850
v 17.047745 -9.842520 0.000000
vn 24.605848 -15.791821 28.081930
v 15.342970 -8.858268 2.047244
vn 22.262630 -20.514845 29.084858
v 13.919425 -13.919425 0.000000
vn 19.680201 -21.622189 28.081932
v 12.527482 -12.527482 2.047244
vn 16.194418 -25.577810 29.084856
v 9.842520 -17.047745 0.000000
vn 13.413382 -25.979040 28.081924
v 8.858268 -15.342970 2.047244
vn 9.022582 -28.897692 29.084845
v 5.094863 -19.014288 0.000000
vn 6.232460 -28.565464 28.081917
v 4.585377 -17.112860 2.047244
vn 1.235872 -30.248240 29.084846
v -0.000000 -19.685040 0.000000
vn -1.373192 -29.205198 28.081919
v 0.000000 -17.716536 2.047244
vn -10.258454 -38.285076 38.111179
v -5.094863 -19.014288 0.000000
vn -4.859268 -18.135036 18.052660
v -4.585377 -17.112860 2.047244
vn -13.413381 -25.979040 28.081923
v -8.858268 -15.342970 2.047244
vn -16.194418 -25.577810 29.084854
v -9.842520 -17.047745 0.000000
vn -19.680202 -21.622189 28.081930
v -12.527482 -12.527482 2.047244
vn -22.262632 -20.514845 29.084858
v -13.919425 -13.919425 0.000000
vn -24.605848 -15.791821 28.081930
v -15.342970 -8.858268 2.047244
vn -26.813683 -14.053825 29.084850
v -17.047745 -9.842520 0.000000
vn -38.285076 -10.258453 38.111176
v -17.112860 -4.585377 2.047244
vn -20.150040 -5.399186 20.058510
v -19.014288 -5.094863 0.000000
vn -30.248240 -1.235872 29.084846
v -19.685040 -0.000000 0.000000
vn -29.205198 1.373192 28.081919
v -17.716536 0.000000 2.047244
vn -29.537424 6.635058 29.084843
v -19.014288 5.094863 0.000000
vn -27.854649 8.885262 28.081919
v -17.112860 4.585377 2.047244
vn -26.813683 14.053824 29.084850
v -17.047745 9.842520 0.000000
vn -24.605848 15.791821 28.081930
v -15.342970 8.858268 2.047244
vn -22.262630 20.514845 29.084858
v -13.919425 13.919425 0.000000
vn -19.680202 21.622189 28.081930
v -12.527482 12.527482 2.047244
vn -16.194418 25.577810 29.084856
v -9.842520 17.047745 0.000000
vn -13.413382 25.979040 28.081924
v -8.858268 15.342970 2.047244
vn -9.022582 28.897690 29.084845
v -5.094863 19.014288 0.000000
vn -6.232460 28.565464 28.081917
v -4.585377 17.112860 2.047244
vn -1.235872 30.248240 29.084846
v 0.000000 19.685040 0.000000
vn 1.373192 29.205198 28.081919
v 0.000000 17.716536 2.047244
vn 10.258454 38.285076 38.111179
v 5.094863 19.014288 0.000000
vn 4.859268 18.135036 18.052660
v 4.585377 17.112860 2.047244
vn 0.000000 0.000000 21.767385
v -17.112860 -4.585377 2.047244
vn 0.000000 0.000000 53.123703
v -17.112860 4.585377 2.047244
vn 0.000000 0.000000 5.536162
v -17.716536 0.000000 2.047244
vn 0.000000 0.000000 97.468231
v -15.342970 -8.858268 2.047244
vn 0.000000 0.000000 151.778961
v -15.342970 8.858268 2.047244
vn 0.000000 0.000000 212.354675
v -12.527482 -12.527482 2.047244
vn 0.000000 0.000000 275.067261
v -12.527482 12.527482 2.047244
vn 0.000000 0.000000 481.885773
v -8.858268 -15.342970 2.047244
vn 0.000000 0.000000 243.710968
v -8.858268 15.342970 2.047244
vn 0.000000 0.000000 434.298248
v -4.585377 17.112860 2.047244
vn 0.000000 0.000000 465.654541
v -4.585377 -17.112860 2.047244
vn 0.000000 0.000000 481.885773
v 0.000000 17.716536 2.047244
vn 0.000000 0.000000 481.885773
v 0.000000 -17.716536 2.047244
vn 0.000000 0.000000 465.654572
v 4.585377 17.112860 2.047244
vn 0.000000 0.000000 434.298279
v 4.585377 -17.112860 2.047244
vn 0.000000 0.000000 481.885773
v 8.858268 15.342970 2.047244
vn 0.000000 0.000000 243.710968
v 8.858268 -15.342970 2.047244
vn 0.000000 0.000000 275.067261
v 12.527482 -12.527482 2.047244
vn 0.000000 0.000000 212.354675
v 12.527482 12.527482 2.047244
vn 0.000000 0.000000 151.778961
v 15.342970 -8.858268 2.047244
vn 0.000000 0.000000 97.468231
v 15.342970 8.858268 2.047244
vn 0.000000 0.000000 53.123703
v 17.112860 -4.585377 2.047244
vn 0.000000 0.000000 21.767385
v 17.112860 4.585377 2.047244
vn 0.000000 0.000000 5.536162
v 17.716536 -0.000000 2.047244
# 96 vertices, 0 vertices normals

f 1//1 2//2 3//3
f 2//2 1//1 4//4
f 2//2 4//4 5//5
f 5//5 4//4 6//6
f 5//5 6//6 7//7
f 7//7 6//6 8//8
f 7//7 8//8 9//9
f 9//9 8//8 10//10
f 9//9 10//10 11//11
f 11//11 10//10 12//12
f 12//12 10//10 13//13
f 12//12 13//13 14//14
f 14//14 13//13 15//15
f 14//14 15//15 16//16
f 16//16 15//15 17//17
f 16//16 17//17 18//18
f 18//18 17//17 19//19
f 18//18 19//19 20//20
f 20//20 19//19 21//21
f 20//20 21//21 22//22
f 22//22 21//21 23//23
f 22//22 23//23 24//24
f 25//25 26//26 27//27
f 26//26 25//25 28//28
f 29//29 28//28 25//25
f 28//28 29//29 30//30
f 31//31 30//30 29//29
f 30//30 31//31 32//32
f 32//32 33//33 34//34
f 33//33 32//32 31//31
f 34//34 35//35 36//36
f 35//35 34//34 33//33
f 37//37 35//35 38//38
f 35//35 37//37 36//36
f 39//39 38//38 40//40
f 38//38 39//39 37//37
f 41//41 40//40 42//42
f 40//40 41//41 39//39
f 43//43 42//42 44//44
f 42//42 43//43 41//41
f 44//44 45//45 43//43
f 45//45 44//44 46//46
f 46//46 47//47 45//45
f 47//47 46//46 48//48
f 47//47 49//49 50//50
f 49//49 47//47 48//48
f 50//50 51//51 52//52
f 51//51 50//50 49//49
f 52//52 53//53 54//54
f 53//53 52//52 51//51
f 54//54 55//55 56//56
f 55//55 54//54 53//53
f 55//55 57//57 56//56
f 57//57 55//55 58//58
f 58//58 59//59 57//57
f 59//59 58//58 60//60
f 60//60 61//61 59//59
f 61//61 60//60 62//62
f 62//62 63//63 61//61
f 63//63 62//62 64//64
f 64//64 65//65 63//63
f 65//65 64//64 66//66
f 66//66 67//67 65//65
f 67//67 66//66 68//68
f 68//68 69//69 67//67
f 69//69 68//68 70//70
f 70//70 71//71 69//69
f 71//71 70//70 72//72
f 27//27 71//71 72//72
f 71//71 27//27 26//26
f 73//73 74//74 75//75
f 74//74 73//73 76//76
f 74//74 76//76 77//77
f 77//77 76//76 78//78
f 77//77 78//78 79//79
f 79//79 78//78 80//80
f 79//79 80//80 81//81
f 81//81 80//80 82//82
f 82//82 80//80 83//83
f 82//82 83//83 84//84
f 84//84 83//83 85//85
f 84//84 85//85 86//86
f 86//86 85//85 87//87
f 86//86 87//87 88//88
f 88//88 87//87 89//89
f 88//88 89//89 90//90
f 88//88 90//90 91//91
f 91//91 90//90 92//92
f 91//91 92//92 93//93
f 93//93 92//92 94//94
f 93//93 94//94 95//95
f 95//95 94//94 96//96
# 92 faces, 0 coords texture

# End of File